# Tiled2Unity generated file. Do not modify by hand.
# Wavefront file for 'cave-002_mesh_0002.obj'

# Vertices (Count = 456)
v -80 -64 0
v -96 -64 0
v -96 -48 0
v -80 -48 0
v -176 -64 0
v -192 -64 0
v -192 -48 0
v -176 -48 0
v -64 -80 0
v -80 -80 0
v -80 -64 0
v -64 -64 0
v -80 -80 0
v -96 -80 0
v -96 -64 0
v -80 -64 0
v -176 -80 0
v -192 -80 0
v -192 -64 0
v -176 -64 0
v -208 -80 0
v -224 -80 0
v -224 -64 0
v -208 -64 0
v -624 -80 0
v -640 -80 0
v -640 -64 0
v -624 -64 0
v -768 -80 0
v -784 -80 0
v -784 -64 0
v -768 -64 0
v -48 -96 0
v -64 -96 0
v -64 -80 0
v -48 -80 0
v -64 -96 0
v -80 -96 0
v -80 -80 0
v -64 -80 0
v -80 -96 0
v -96 -96 0
v -96 -80 0
v -80 -80 0
v -176 -96 0
v -192 -96 0
v -192 -80 0
v -176 -80 0
v -208 -96 0
v -224 -96 0
v -224 -80 0
v -208 -80 0
v -240 -96 0
v -256 -96 0
v -256 -80 0
v -240 -80 0
v -592 -96 0
v -608 -96 0
v -608 -80 0
v -592 -80 0
v -624 -96 0
v -640 -96 0
v -640 -80 0
v -624 -80 0
v -768 -96 0
v -784 -96 0
v -784 -80 0
v -768 -80 0
v -784 -96 0
v -800 -96 0
v -800 -80 0
v -784 -80 0
v -48 -112 0
v -64 -112 0
v -64 -96 0
v -48 -96 0
v -64 -112 0
v -80 -112 0
v -80 -96 0
v -64 -96 0
v -208 -112 0
v -224 -112 0
v -224 -96 0
v -208 -96 0
v -240 -112 0
v -256 -112 0
v -256 -96 0
v -240 -96 0
v -576 -112 0
v -592 -112 0
v -592 -96 0
v -576 -96 0
v -592 -112 0
v -608 -112 0
v -608 -96 0
v -592 -96 0
v -624 -112 0
v -640 -112 0
v -640 -96 0
v -624 -96 0
v -768 -112 0
v -784 -112 0
v -784 -96 0
v -768 -96 0
v -784 -112 0
v -800 -112 0
v -800 -96 0
v -784 -96 0
v -800 -112 0
v -816 -112 0
v -816 -96 0
v -800 -96 0
v -48 -128 0
v -64 -128 0
v -64 -112 0
v -48 -112 0
v -240 -128 0
v -256 -128 0
v -256 -112 0
v -240 -112 0
v -272 -128 0
v -288 -128 0
v -288 -112 0
v -272 -112 0
v -560 -128 0
v -576 -128 0
v -576 -112 0
v -560 -112 0
v -576 -128 0
v -592 -128 0
v -592 -112 0
v -576 -112 0
v -592 -128 0
v -608 -128 0
v -608 -112 0
v -592 -112 0
v -784 -128 0
v -800 -128 0
v -800 -112 0
v -784 -112 0
v -800 -128 0
v -816 -128 0
v -816 -112 0
v -800 -112 0
v -272 -144 0
v -288 -144 0
v -288 -128 0
v -272 -128 0
v -352 -144 0
v -368 -144 0
v -368 -128 0
v -352 -128 0
v -544 -144 0
v -560 -144 0
v -560 -128 0
v -544 -128 0
v -560 -144 0
v -576 -144 0
v -576 -128 0
v -560 -128 0
v -576 -144 0
v -592 -144 0
v -592 -128 0
v -576 -128 0
v -800 -144 0
v -816 -144 0
v -816 -128 0
v -800 -128 0
v -272 -160 0
v -288 -160 0
v -288 -144 0
v -272 -144 0
v -352 -160 0
v -368 -160 0
v -368 -144 0
v -352 -144 0
v -544 -160 0
v -560 -160 0
v -560 -144 0
v -544 -144 0
v -560 -160 0
v -576 -160 0
v -576 -144 0
v -560 -144 0
v -352 -176 0
v -368 -176 0
v -368 -160 0
v -352 -160 0
v -544 -176 0
v -560 -176 0
v -560 -160 0
v -544 -160 0
v -64 -320 0
v -80 -320 0
v -80 -304 0
v -64 -304 0
v -160 -320 0
v -176 -320 0
v -176 -304 0
v -160 -304 0
v -496 -320 0
v -512 -320 0
v -512 -304 0
v -496 -304 0
v -576 -320 0
v -592 -320 0
v -592 -304 0
v -576 -304 0
v -48 -336 0
v -64 -336 0
v -64 -320 0
v -48 -320 0
v -64 -336 0
v -80 -336 0
v -80 -320 0
v -64 -320 0
v -160 -336 0
v -176 -336 0
v -176 -320 0
v -160 -320 0
v -208 -336 0
v -224 -336 0
v -224 -320 0
v -208 -320 0
v -416 -336 0
v -432 -336 0
v -432 -320 0
v -416 -320 0
v -496 -336 0
v -512 -336 0
v -512 -320 0
v -496 -320 0
v -576 -336 0
v -592 -336 0
v -592 -320 0
v -576 -320 0
v -816 -336 0
v -832 -336 0
v -832 -320 0
v -816 -320 0
v -48 -352 0
v -64 -352 0
v -64 -336 0
v -48 -336 0
v -64 -352 0
v -80 -352 0
v -80 -336 0
v -64 -336 0
v -160 -352 0
v -176 -352 0
v -176 -336 0
v -160 -336 0
v -208 -352 0
v -224 -352 0
v -224 -336 0
v -208 -336 0
v -416 -352 0
v -432 -352 0
v -432 -336 0
v -416 -336 0
v -496 -352 0
v -512 -352 0
v -512 -336 0
v -496 -336 0
v -576 -352 0
v -592 -352 0
v -592 -336 0
v -576 -336 0
v -816 -352 0
v -832 -352 0
v -832 -336 0
v -816 -336 0
v -48 -368 0
v -64 -368 0
v -64 -352 0
v -48 -352 0
v -208 -368 0
v -224 -368 0
v -224 -352 0
v -208 -352 0
v -416 -368 0
v -432 -368 0
v -432 -352 0
v -416 -352 0
v -816 -368 0
v -832 -368 0
v -832 -352 0
v -816 -352 0
v -592 -400 0
v -608 -400 0
v -608 -384 0
v -592 -384 0
v -592 -416 0
v -608 -416 0
v -608 -400 0
v -592 -400 0
v -592 -432 0
v -608 -432 0
v -608 -416 0
v -592 -416 0
v -64 -528 0
v -80 -528 0
v -80 -512 0
v -64 -512 0
v -144 -528 0
v -160 -528 0
v -160 -512 0
v -144 -512 0
v -48 -544 0
v -64 -544 0
v -64 -528 0
v -48 -528 0
v -64 -544 0
v -80 -544 0
v -80 -528 0
v -64 -528 0
v -144 -544 0
v -160 -544 0
v -160 -528 0
v -144 -528 0
v -240 -544 0
v -256 -544 0
v -256 -528 0
v -240 -528 0
v -48 -560 0
v -64 -560 0
v -64 -544 0
v -48 -544 0
v -64 -560 0
v -80 -560 0
v -80 -544 0
v -64 -544 0
v -144 -560 0
v -160 -560 0
v -160 -544 0
v -144 -544 0
v -240 -560 0
v -256 -560 0
v -256 -544 0
v -240 -544 0
v -48 -576 0
v -64 -576 0
v -64 -560 0
v -48 -560 0
v -240 -576 0
v -256 -576 0
v -256 -560 0
v -240 -560 0
v -384 -608 0
v -400 -608 0
v -400 -592 0
v -384 -592 0
v -384 -624 0
v -400 -624 0
v -400 -608 0
v -384 -608 0
v -448 -624 0
v -464 -624 0
v -464 -608 0
v -448 -608 0
v -384 -640 0
v -400 -640 0
v -400 -624 0
v -384 -624 0
v -448 -640 0
v -464 -640 0
v -464 -624 0
v -448 -624 0
v -528 -640 0
v -544 -640 0
v -544 -624 0
v -528 -624 0
v -448 -656 0
v -464 -656 0
v -464 -640 0
v -448 -640 0
v -528 -656 0
v -544 -656 0
v -544 -640 0
v -528 -640 0
v -624 -656 0
v -640 -656 0
v -640 -640 0
v -624 -640 0
v -528 -672 0
v -544 -672 0
v -544 -656 0
v -528 -656 0
v -624 -672 0
v -640 -672 0
v -640 -656 0
v -624 -656 0
v -752 -672 0
v -768 -672 0
v -768 -656 0
v -752 -656 0
v -624 -688 0
v -640 -688 0
v -640 -672 0
v -624 -672 0
v -752 -688 0
v -768 -688 0
v -768 -672 0
v -752 -672 0
v -768 -688 0
v -784 -688 0
v -784 -672 0
v -768 -672 0
v -752 -704 0
v -768 -704 0
v -768 -688 0
v -752 -688 0
v -768 -704 0
v -784 -704 0
v -784 -688 0
v -768 -688 0
v -784 -704 0
v -800 -704 0
v -800 -688 0
v -784 -688 0
v -768 -720 0
v -784 -720 0
v -784 -704 0
v -768 -704 0
v -784 -720 0
v -800 -720 0
v -800 -704 0
v -784 -704 0
v -800 -720 0
v -816 -720 0
v -816 -704 0
v -800 -704 0
v -784 -736 0
v -800 -736 0
v -800 -720 0
v -784 -720 0
v -800 -736 0
v -816 -736 0
v -816 -720 0
v -800 -720 0
v -816 -736 0
v -832 -736 0
v -832 -720 0
v -816 -720 0
v -800 -752 0
v -816 -752 0
v -816 -736 0
v -800 -736 0
v -816 -752 0
v -832 -752 0
v -832 -736 0
v -816 -736 0
v -816 -768 0
v -832 -768 0
v -832 -752 0
v -816 -752 0

# Texture cooridinates (Count = 8)
vt 0.05 0.85
vt 0.1 0.85
vt 0.1 0.9
vt 0.05 0.9
vt 0.05 0.8
vt 0.1 0.8
vt 0.05 0.75
vt 0.1 0.75

# Normal
vn 0 0 -1

# Mesh description
g cave-002_mesh_0002

# Faces
f 1/1/1 2/2/1 3/3/1 4/4/1
f 5/1/1 6/2/1 7/3/1 8/4/1
f 9/1/1 10/2/1 11/3/1 12/4/1
f 13/5/1 14/6/1 15/2/1 16/1/1
f 17/5/1 18/6/1 19/2/1 20/1/1
f 21/1/1 22/2/1 23/3/1 24/4/1
f 25/1/1 26/2/1 27/3/1 28/4/1
f 29/1/1 30/2/1 31/3/1 32/4/1
f 33/1/1 34/2/1 35/3/1 36/4/1
f 37/5/1 38/6/1 39/2/1 40/1/1
f 41/7/1 42/8/1 43/6/1 44/5/1
f 45/7/1 46/8/1 47/6/1 48/5/1
f 49/5/1 50/6/1 51/2/1 52/1/1
f 53/1/1 54/2/1 55/3/1 56/4/1
f 57/1/1 58/2/1 59/3/1 60/4/1
f 61/5/1 62/6/1 63/2/1 64/1/1
f 65/5/1 66/6/1 67/2/1 68/1/1
f 69/1/1 70/2/1 71/3/1 72/4/1
f 73/5/1 74/6/1 75/2/1 76/1/1
f 77/7/1 78/8/1 79/6/1 80/5/1
f 81/7/1 82/8/1 83/6/1 84/5/1
f 85/5/1 86/6/1 87/2/1 88/1/1
f 89/1/1 90/2/1 91/3/1 92/4/1
f 93/5/1 94/6/1 95/2/1 96/1/1
f 97/7/1 98/8/1 99/6/1 100/5/1
f 101/7/1 102/8/1 103/6/1 104/5/1
f 105/5/1 106/6/1 107/2/1 108/1/1
f 109/1/1 110/2/1 111/3/1 112/4/1
f 113/7/1 114/8/1 115/6/1 116/5/1
f 117/7/1 118/8/1 119/6/1 120/5/1
f 121/1/1 122/2/1 123/3/1 124/4/1
f 125/1/1 126/2/1 127/3/1 128/4/1
f 129/5/1 130/6/1 131/2/1 132/1/1
f 133/7/1 134/8/1 135/6/1 136/5/1
f 137/7/1 138/8/1 139/6/1 140/5/1
f 141/5/1 142/6/1 143/2/1 144/1/1
f 145/5/1 146/6/1 147/2/1 148/1/1
f 149/1/1 150/2/1 151/3/1 152/4/1
f 153/1/1 154/2/1 155/3/1 156/4/1
f 157/5/1 158/6/1 159/2/1 160/1/1
f 161/7/1 162/8/1 163/6/1 164/5/1
f 165/7/1 166/8/1 167/6/1 168/5/1
f 169/7/1 170/8/1 171/6/1 172/5/1
f 173/5/1 174/6/1 175/2/1 176/1/1
f 177/5/1 178/6/1 179/2/1 180/1/1
f 181/7/1 182/8/1 183/6/1 184/5/1
f 185/7/1 186/8/1 187/6/1 188/5/1
f 189/7/1 190/8/1 191/6/1 192/5/1
f 193/1/1 194/2/1 195/3/1 196/4/1
f 197/1/1 198/2/1 199/3/1 200/4/1
f 201/1/1 202/2/1 203/3/1 204/4/1
f 205/1/1 206/2/1 207/3/1 208/4/1
f 209/1/1 210/2/1 211/3/1 212/4/1
f 213/5/1 214/6/1 215/2/1 216/1/1
f 217/5/1 218/6/1 219/2/1 220/1/1
f 221/1/1 222/2/1 223/3/1 224/4/1
f 225/1/1 226/2/1 227/3/1 228/4/1
f 229/5/1 230/6/1 231/2/1 232/1/1
f 233/5/1 234/6/1 235/2/1 236/1/1
f 237/1/1 238/2/1 239/3/1 240/4/1
f 241/5/1 242/6/1 243/2/1 244/1/1
f 245/7/1 246/8/1 247/6/1 248/5/1
f 249/7/1 250/8/1 251/6/1 252/5/1
f 253/5/1 254/6/1 255/2/1 256/1/1
f 257/5/1 258/6/1 259/2/1 260/1/1
f 261/7/1 262/8/1 263/6/1 264/5/1
f 265/7/1 266/8/1 267/6/1 268/5/1
f 269/5/1 270/6/1 271/2/1 272/1/1
f 273/7/1 274/8/1 275/6/1 276/5/1
f 277/7/1 278/8/1 279/6/1 280/5/1
f 281/7/1 282/8/1 283/6/1 284/5/1
f 285/7/1 286/8/1 287/6/1 288/5/1
f 289/1/1 290/2/1 291/3/1 292/4/1
f 293/5/1 294/6/1 295/2/1 296/1/1
f 297/7/1 298/8/1 299/6/1 300/5/1
f 301/1/1 302/2/1 303/3/1 304/4/1
f 305/1/1 306/2/1 307/3/1 308/4/1
f 309/1/1 310/2/1 311/3/1 312/4/1
f 313/5/1 314/6/1 315/2/1 316/1/1
f 317/5/1 318/6/1 319/2/1 320/1/1
f 321/1/1 322/2/1 323/3/1 324/4/1
f 325/5/1 326/6/1 327/2/1 328/1/1
f 329/7/1 330/8/1 331/6/1 332/5/1
f 333/7/1 334/8/1 335/6/1 336/5/1
f 337/5/1 338/6/1 339/2/1 340/1/1
f 341/7/1 342/8/1 343/6/1 344/5/1
f 345/7/1 346/8/1 347/6/1 348/5/1
f 349/1/1 350/2/1 351/3/1 352/4/1
f 353/5/1 354/6/1 355/2/1 356/1/1
f 357/1/1 358/2/1 359/3/1 360/4/1
f 361/7/1 362/8/1 363/6/1 364/5/1
f 365/5/1 366/6/1 367/2/1 368/1/1
f 369/1/1 370/2/1 371/3/1 372/4/1
f 373/7/1 374/8/1 375/6/1 376/5/1
f 377/5/1 378/6/1 379/2/1 380/1/1
f 381/1/1 382/2/1 383/3/1 384/4/1
f 385/7/1 386/8/1 387/6/1 388/5/1
f 389/5/1 390/6/1 391/2/1 392/1/1
f 393/1/1 394/2/1 395/3/1 396/4/1
f 397/7/1 398/8/1 399/6/1 400/5/1
f 401/5/1 402/6/1 403/2/1 404/1/1
f 405/1/1 406/2/1 407/3/1 408/4/1
f 409/7/1 410/8/1 411/6/1 412/5/1
f 413/5/1 414/6/1 415/2/1 416/1/1
f 417/1/1 418/2/1 419/3/1 420/4/1
f 421/7/1 422/8/1 423/6/1 424/5/1
f 425/5/1 426/6/1 427/2/1 428/1/1
f 429/1/1 430/2/1 431/3/1 432/4/1
f 433/7/1 434/8/1 435/6/1 436/5/1
f 437/5/1 438/6/1 439/2/1 440/1/1
f 441/1/1 442/2/1 443/3/1 444/4/1
f 445/7/1 446/8/1 447/6/1 448/5/1
f 449/5/1 450/6/1 451/2/1 452/1/1
f 453/7/1 454/8/1 455/6/1 456/5/1

